<svg width="163" height="180" xmlns="http://www.w3.org/2000/svg" viewBox="0 0 364.92 299.15">
  <defs>
    <style>.cls-1{fill:#dcdce4;}.cls-2{fill:#a5a5ba;}.cls-3{fill:#c0c0cf;}.cls-4{fill:#ee5e52;}.cls-5{fill:#4a4a6a;}.cls-6{fill:#32324d;}</style>
  </defs>
  <g id="circleGroup">
    <circle cx="185" cy="160.57" r="163" fill="none" stroke="#0000FF" stroke-width="5"/>
    <defs>
    <style>.cls-1{fill:#dcdce4;}.cls-2{fill:#a5a5ba;}.cls-3{fill:#c0c0cf;}.cls-4{fill:#ee5e52;}.cls-5{fill:#4a4a6a;}.cls-6{fill:#32324d;}
    </style>
    </defs>
    <g id="Layer_2" data-name="Layer 2">
    <g id="Layer_1-2" data-name="Layer 1">
    <path class="cls-1" d="M200.93,82.55a34.92,34.92,0,1,0,34.91-34.91A35,35,0,0,0,200.93,82.55Zm34.91-11.7a11.71,11.71,0,1,1-11.7,11.7A11.7,11.7,0,0,1,235.84,70.85Z"/>
    <path class="cls-2" d="M98.67,188a48.35,48.35,0,0,0,11.46-2.18,4.15,4.15,0,0,1,3.68.72,4,4,0,0,1,1.57,3.35v.38c0,6.55,6.21,9.56,11.42,10.92,3.27.88,13.17,3.16,19.73,3.16,5.34,0,15.27-1.49,20.62-4.8A101.35,101.35,0,0,0,177.76,192a3,3,0,0,1,4.65,1.1c2.08,4.72,6.63,11.74,10.65,11.74A10.81,10.81,0,0,0,203.11,198a6.45,6.45,0,0,1,4.09-3.74c2.24-.69,4.19-1.37,5.72-2l-28.19-32.2-.11-.19a25.51,25.51,0,1,1,44.18-25.51l0,0,16.26,29.3a10.89,10.89,0,0,0,3-2.87l.23-.33.34-.23c.06,0,6.41-4.4,8.92-7.08a38.72,38.72,0,0,0,9-37.13L264.14,110a39.39,39.39,0,0,1-59.44-3.28,39.16,39.16,0,0,1-21.23,6.2,39.62,39.62,0,0,1-8.57-.94,39.48,39.48,0,1,1,.4-5.64c0,.36,0,.72,0,1.07a35.06,35.06,0,0,0,8.18,1A34.7,34.7,0,0,0,202.12,103a39.43,39.43,0,0,1,33.47-59.9A85.16,85.16,0,0,0,79.15,89.7v0l-1.1,61.82a8.09,8.09,0,0,1-4,6.83,10.85,10.85,0,0,0-2.59,16.5l.07.08A34.52,34.52,0,0,0,98.67,188Z"/><path class="cls-3" d="M279.37,225.48l45.22-11.27V202.27a449.91,449.91,0,0,0-55.74,4.27Z"/><path class="cls-4" d="M274,244.09a9.37,9.37,0,0,0,3.42-12.78l0,0-52.54-94.61a21,21,0,0,0-36.42,20.8l72.5,82.81C263,242.51,268.45,247.29,274,244.09Z"/>
    <path class="cls-3" d="M207.31,199.75a15.33,15.33,0,0,1-14.25,9.58c-6.74,0-11.85-8.5-13.95-12.64a105.26,105.26,0,0,1-9.57,6.75c-6.45,4-17.54,5.48-23,5.48-8.5,0-20.77-3.27-20.89-3.3-9.51-2.5-14.77-7.91-14.8-15.25-3.74,1-8.71,2.21-12.17,2.21a39,39,0,0,1-21.21-6.22l-.24,13.41c2.78.27,5.67.57,8.65.91a432.92,432.92,0,0,1,46.8,7.89,309.1,309.1,0,0,1,49.79,15.59A303.16,303.16,0,0,1,228,209.57l-12-13.65a76.48,76.48,0,0,1-7.53,2.72A1.92,1.92,0,0,0,207.31,199.75Z"/>
    <path class="cls-3" d="M251.56,163.84a15.34,15.34,0,0,1-4.27,3.88l19.2,34.57c12.54-1.78,24-2.87,33.45-3.53l-27.49-68.15a43,43,0,0,1-11.55,25.74C258.38,159,253,162.87,251.56,163.84Z"/>
    <path class="cls-3" d="M231.4,213.43a300.2,300.2,0,0,0-48.06,15.28l-.88.37-.88-.37c-33.69-14.19-70.88-20.62-96.16-23.52a438.69,438.69,0,0,0-45.09-2.92v11.94l122.05,30.42a8.8,8.8,0,0,1,8.24-5.73h23.69a8.79,8.79,0,0,1,8.23,5.73l46.12-11.49Z"/>
    <path class="cls-5" d="M194.31,243.44H170.62a4.26,4.26,0,0,0-4.26,4.25v46.93h32.2V247.69A4.26,4.26,0,0,0,194.31,243.44Z"/>
    <path class="cls-5" d="M357.58,213.56a7.3,7.3,0,0,0-6.28-1.33l-69.66,17.36A13.89,13.89,0,0,1,276.26,248a12.24,12.24,0,0,1-6.15,1.67c-4.22,0-8.61-2.17-12.51-6.34l-.05-.06L252,237l-48.93,12.2v45.45h150a7.32,7.32,0,0,0,7.32-7.31v-68A7.3,7.3,0,0,0,357.58,213.56Z"/>
    <path class="cls-1" d="M135.85,71.44a34.92,34.92,0,1,0,34.92,34.92A35,35,0,0,0,135.85,71.44Zm0,46.62a11.7,11.7,0,1,1,11.7-11.7A11.7,11.7,0,0,1,135.85,118.06Z"/>
    <path class="cls-5" d="M7.35,213.56a7.28,7.28,0,0,0-2.82,5.77v68a7.33,7.33,0,0,0,7.32,7.31h150V249.17L13.62,212.23A7.27,7.27,0,0,0,7.35,213.56Z"/>
    <circle class="cls-6" cx="135.85" cy="106.36" r="11.7"/>
    <circle class="cls-6" cx="235.84" cy="82.55" r="11.7" transform="translate(-13.64 96.54) rotate(-22.5)"/>
    <path class="cls-6" d="M360.37,210a11.77,11.77,0,0,0-10.16-2.16l-21.08,5.25V197.77l-2.24,0c-.15,0-8.63-.1-22.18.71l-37.25-92.32a39.44,39.44,0,0,0-26.3-62.67A89.56,89.56,0,0,0,135.91,4.64a89.78,89.78,0,0,0-61.3,85l-1.09,61.8a3.59,3.59,0,0,1-1.77,3A15.38,15.38,0,0,0,68,177.84,40.18,40.18,0,0,0,73,183l-.29,16.37c-20.63-1.79-34.49-1.63-34.66-1.62l-2.23,0v15.31l-21.09-5.25A11.84,11.84,0,0,0,0,219.33v68a11.86,11.86,0,0,0,11.85,11.84H353.07a11.85,11.85,0,0,0,11.85-11.84v-68A11.78,11.78,0,0,0,360.37,210Zm-35.78-7.72v11.94l-45.22,11.27-10.52-18.94A449.91,449.91,0,0,1,324.59,202.27Zm-136.15-44.8a21,21,0,0,1,36.42-20.8l52.54,94.61,0,0A9.37,9.37,0,0,1,274,244.09c-5.55,3.2-11-1.58-13.06-3.81ZM228,209.57a303.16,303.16,0,0,0-45.56,14.59,309.1,309.1,0,0,0-49.79-15.59,432.92,432.92,0,0,0-46.8-7.89c-3-.34-5.87-.64-8.65-.91l.24-13.41a39,39,0,0,0,21.21,6.22c3.46,0,8.43-1.17,12.17-2.21,0,7.34,5.29,12.75,14.8,15.25.12,0,12.39,3.3,20.89,3.3,5.47,0,16.56-1.48,23-5.48a105.26,105.26,0,0,0,9.57-6.75c2.1,4.14,7.21,12.64,13.95,12.64a15.33,15.33,0,0,0,14.25-9.58,1.92,1.92,0,0,1,1.23-1.11,76.48,76.48,0,0,0,7.53-2.72Zm71.92-10.81c-9.47.66-20.91,1.75-33.45,3.53l-19.2-34.57a15.34,15.34,0,0,0,4.27-3.88c1.39-1,6.82-4.8,9.34-7.49a43,43,0,0,0,11.55-25.74ZM270.76,82.55a34.92,34.92,0,1,1-34.92-34.91A35,35,0,0,1,270.76,82.55ZM71.55,175l-.07-.08a10.85,10.85,0,0,1,2.59-16.5,8.09,8.09,0,0,0,4-6.83l1.1-61.82v0A85.16,85.16,0,0,1,235.59,43.11,39.43,39.43,0,0,0,202.12,103a34.7,34.7,0,0,1-18.65,5.39,35.06,35.06,0,0,1-8.18-1c0-.35,0-.71,0-1.07a39.41,39.41,0,1,0-.4,5.64,39.62,39.62,0,0,0,8.57.94,39.16,39.16,0,0,0,21.23-6.2A39.39,39.39,0,0,0,264.14,110l2.45,6.09a38.72,38.72,0,0,1-9,37.13c-2.51,2.68-8.86,7-8.92,7.08l-.34.23-.23.33a10.89,10.89,0,0,1-3,2.87l-16.26-29.3,0,0a25.51,25.51,0,1,0-44.18,25.51l.11.19,28.19,32.2c-1.53.61-3.48,1.29-5.72,2a6.45,6.45,0,0,0-4.09,3.74,10.81,10.81,0,0,1-10.05,6.75c-4,0-8.57-7-10.65-11.74a3,3,0,0,0-4.65-1.1,101.35,101.35,0,0,1-10.61,7.64c-5.35,3.31-15.28,4.8-20.62,4.8-6.56,0-16.46-2.28-19.73-3.16-5.21-1.36-11.42-4.37-11.42-10.92v-.38a4,4,0,0,0-1.57-3.35,4.15,4.15,0,0,0-3.68-.72A48.35,48.35,0,0,1,98.67,188,34.52,34.52,0,0,1,71.55,175Zm99.22-68.61a34.92,34.92,0,1,1-34.92-34.92A35,35,0,0,1,170.77,106.36Zm-8.94,188.26h-150a7.33,7.33,0,0,1-7.32-7.31v-68a7.32,7.32,0,0,1,9.09-7.1l148.21,36.94Zm36.73,0h-32.2V247.69a4.26,4.26,0,0,1,4.26-4.25h23.69a4.26,4.26,0,0,1,4.25,4.25Zm4-50a8.79,8.79,0,0,0-8.23-5.73H170.62a8.8,8.8,0,0,0-8.24,5.73l-122-30.42V202.27a438.69,438.69,0,0,1,45.09,2.92c25.28,2.9,62.47,9.33,96.16,23.52l.88.37.88-.37a300.2,300.2,0,0,1,48.06-15.28l17.26,19.71Zm157.85,42.68a7.32,7.32,0,0,1-7.32,7.31h-150V249.17L252,237l5.53,6.32.05.06c3.9,4.17,8.29,6.34,12.51,6.34a12.24,12.24,0,0,0,6.15-1.67,13.89,13.89,0,0,0,5.38-18.43l69.66-17.36a7.31,7.31,0,0,1,9.09,7.1Z"/>
    </g>
    </g>
    </g>
</svg>